General
Complete name                            : Belle De Jour [1967] 720p BRRip H264 AC3 - CODY.mp4
Format                                   : MPEG-4
Format profile                           : Base Media
Codec ID                                 : isom
File size                                : 1.69 GiB
Duration                                 : 1h 39mn
Overall bit rate mode                    : Variable
Overall bit rate                         : 2 423 Kbps
Encoded date                             : UTC 2012-06-19 10:01:11

Video
ID                                       : 1
Format                                   : AVC
Format/Info                              : Advanced Video Codec
Format profile                           : High@L4.1
Format settings, CABAC                   : Yes
Format settings, ReFrames                : 5 frames
Codec ID                                 : avc1
Codec ID/Info                            : Advanced Video Coding
Duration                                 : 1h 39mn
Bit rate mode                            : Variable
Bit rate                                 : 2 100 Kbps
Maximum bit rate                         : 20.0 Mbps
Width                                    : 1 200 pixels
Height                                   : 720 pixels
Display aspect ratio                     : 1.667
Frame rate mode                          : Constant
Frame rate                               : 24.000 fps
Color space                              : YUV
Chroma subsampling                       : 4:2:0
Bit depth                                : 8 bits
Scan type                                : Progressive
Bits/(Pixel*Frame)                       : 0.101
Stream size                              : 1.47 GiB (87%)
Writing library                          : x264 core 119 r2106 07efeb4
Encoding settings                        : rc=2pass

Audio
ID                                       : 2
Format                                   : AC-3
Format/Info                              : Audio Coding 3
Mode extension                           : CM (complete main)
Codec ID                                 : ac-3
Duration                                 : 1h 39mn
Bit rate mode                            : Constant
Bit rate                                 : 320 Kbps
Channel(s)                               : 2 channels
Channel positions                        : Front: L R
Sampling rate                            : 48.0 KHz
Bit depth                                : 16 bits
Compression mode                         : Lossy
Stream size                              : 229 MiB (13%)



IMDB link:                                 http://www.imdb.com/title/tt0061395/


Subtitles included                       : English, Romanian


Please seed at least 1,5:1 . This way this torrent has a chance to survive !


Thanks . Enjoy !! 